<?xml version="1.0" encoding="iso-8859-1"?>
<!-- Generator: Adobe Illustrator 19.0.0, SVG Export Plug-In . SVG Version: 6.00 Build 0)  -->
<svg version="1.1" id="Layer_1" xmlns="http://www.w3.org/2000/svg" xmlns:xlink="http://www.w3.org/1999/xlink" x="0px" y="0px"
	 viewBox="0 0 512 512" style="enable-background:new 0 0 512 512;" xml:space="preserve">
<circle style="fill:#AAAAAA;" cx="256" cy="256" r="256"/>
<g>
	<path style="fill:#FFFFFF;" d="M114.368,202.112v31.584c5.312-6.216,11.664-9.32,19.048-9.32c3.792,0,7.2,0.704,10.248,2.112
		s5.344,3.2,6.888,5.392c1.536,2.184,2.592,4.608,3.168,7.264c0.56,2.656,0.848,6.784,0.848,12.368v36.496h-16.472v-32.872
		c0-6.512-0.312-10.656-0.936-12.424c-0.624-1.752-1.728-3.152-3.312-4.184c-1.576-1.032-3.56-1.544-5.944-1.544
		c-2.736,0-5.176,0.664-7.32,1.984c-2.16,1.336-3.728,3.336-4.72,6.008c-1,2.68-1.504,6.632-1.504,11.864v31.168H97.896v-85.896
		H114.368z"/>
	<path style="fill:#FFFFFF;" d="M199.808,225.784v13.128H188.56v25.08c0,5.08,0.112,8.04,0.32,8.872
		c0.216,0.84,0.704,1.536,1.472,2.088c0.76,0.544,1.688,0.816,2.784,0.816c1.52,0,3.728-0.52,6.624-1.576l1.408,12.776
		c-3.832,1.64-8.168,2.464-13.016,2.464c-2.968,0-5.64-0.496-8.024-1.496s-4.136-2.288-5.24-3.864
		c-1.12-1.584-1.888-3.72-2.312-6.424c-0.36-1.904-0.528-5.776-0.528-11.592V238.92h-7.56v-13.128h7.56v-12.368l16.52-9.608v21.976
		h11.24V225.784z"/>
	<path style="fill:#FFFFFF;" d="M239.768,225.784v13.128H228.52v25.08c0,5.08,0.112,8.04,0.32,8.872
		c0.216,0.84,0.704,1.536,1.472,2.088c0.76,0.544,1.688,0.816,2.784,0.816c1.52,0,3.728-0.52,6.624-1.576l1.408,12.776
		c-3.832,1.64-8.168,2.464-13.016,2.464c-2.968,0-5.64-0.496-8.024-1.496s-4.136-2.288-5.24-3.864
		c-1.12-1.584-1.888-3.72-2.312-6.424c-0.36-1.904-0.528-5.776-0.528-11.592V238.92h-7.56v-13.128h7.56v-12.368l16.52-9.608v21.976
		h11.24V225.784z"/>
	<path style="fill:#FFFFFF;" d="M250.72,225.784h15.36v9.144c1.984-3.128,4.688-5.664,8.08-7.616
		c3.408-1.952,7.168-2.928,11.312-2.928c7.224,0,13.36,2.832,18.4,8.496c5.04,5.672,7.552,13.56,7.552,23.672
		c0,10.4-2.536,18.472-7.608,24.232c-5.088,5.76-11.232,8.64-18.464,8.64c-3.44,0-6.552-0.688-9.344-2.048
		c-2.8-1.368-5.736-3.712-8.824-7.032v31.344H250.72V225.784z M267.016,255.832c0,7,1.384,12.168,4.16,15.504
		c2.776,3.344,6.16,5.016,10.144,5.016c3.824,0,7.008-1.536,9.544-4.6c2.536-3.072,3.816-8.096,3.816-15.088
		c0-6.52-1.312-11.376-3.928-14.528c-2.616-3.168-5.856-4.752-9.728-4.752c-4.024,0-7.368,1.552-10.016,4.656
		C268.336,245.152,267.016,249.744,267.016,255.832z"/>
	<path style="fill:#FFFFFF;" d="M327.656,242.24v-16.464h16.464v16.464H327.656z M327.656,288.008v-16.472h16.464v16.472H327.656z"
		/>
	<path style="fill:#FFFFFF;" d="M355.664,289.48l21.264-88.832h12.36l-21.504,88.832H355.664z"/>
	<path style="fill:#FFFFFF;" d="M389,289.48l21.264-88.832h12.36L401.12,289.48H389z"/>
</g>
<g>
</g>
<g>
</g>
<g>
</g>
<g>
</g>
<g>
</g>
<g>
</g>
<g>
</g>
<g>
</g>
<g>
</g>
<g>
</g>
<g>
</g>
<g>
</g>
<g>
</g>
<g>
</g>
<g>
</g>
</svg>
