<?xml version="1.0" encoding="UTF-8" standalone="no"?>
<svg
   xmlns:dc="http://purl.org/dc/elements/1.1/"
   xmlns:cc="http://creativecommons.org/ns#"
   xmlns:rdf="http://www.w3.org/1999/02/22-rdf-syntax-ns#"
   xmlns:svg="http://www.w3.org/2000/svg"
   xmlns="http://www.w3.org/2000/svg"
   xmlns:sodipodi="http://sodipodi.sourceforge.net/DTD/sodipodi-0.dtd"
   xmlns:inkscape="http://www.inkscape.org/namespaces/inkscape"
   height="16"
   id="SVGRoot"
   version="1.1"
   viewBox="0 0 8 16"
   width="8"
   sodipodi:docname="mobile_v2.svg"
   inkscape:version="0.92.3 (2405546, 2018-03-11)">
  <metadata
     id="metadata3727">
    <rdf:RDF>
      <cc:Work
         rdf:about="">
        <dc:format>image/svg+xml</dc:format>
        <dc:type
           rdf:resource="http://purl.org/dc/dcmitype/StillImage" />
        <dc:title></dc:title>
      </cc:Work>
    </rdf:RDF>
  </metadata>
  <sodipodi:namedview
     pagecolor="#ffffff"
     bordercolor="#666666"
     borderopacity="1"
     objecttolerance="10"
     gridtolerance="10"
     guidetolerance="10"
     inkscape:pageopacity="0"
     inkscape:pageshadow="2"
     inkscape:window-width="2560"
     inkscape:window-height="1377"
     id="namedview3725"
     showgrid="false"
     inkscape:zoom="53.386562"
     inkscape:cx="6.53795"
     inkscape:cy="9.1934418"
     inkscape:window-x="-8"
     inkscape:window-y="-8"
     inkscape:window-maximized="1"
     inkscape:current-layer="layer3" />
  <defs
     id="defs10" />
  <g
     inkscape:groupmode="layer"
     id="layer3"
     inkscape:label="Layer 2">
    <rect
       style="fill:#ffffff;stroke-width:1.0177294"
       id="rect3731"
       width="7.2490153"
       height="14.685343"
       x="0.39335743"
       y="0.49047911"
       ry="0" />
    <rect
       style="fill:#ffffff;stroke-width:0.16363926"
       id="rect3731-5"
       width="1.9855185"
       height="1.3861159"
       x="2.9689116"
       y="14.576422"
       ry="0" />
  </g>
  <g
     inkscape:groupmode="layer"
     id="layer2"
     inkscape:label="Layer 1">
    <g
       id="layer1"
       transform="matrix(1.057116,0,0,1.1978421,-4.7723865,-1.6394181)">
      <path
         d="m 5.5481831,1.375 c -0.5698313,0 -1.0285763,0.5156875 -1.0285763,1.15625 v 11.037109 c 0,0.640563 0.458745,1.15625 1.0285763,1.15625 h 5.4857409 c 0.569831,0 1.028576,-0.515687 1.028576,-1.15625 V 2.53125 C 12.0625,1.8906875 11.603755,1.375 11.033924,1.375 Z m 0.2696442,0.4707031 h 4.9464517 c 0.513712,0 0.926791,0.4635388 0.926791,1.0410157 v 9.9492192 c 0,0.577475 -0.413079,1.042968 -0.926791,1.042968 H 5.8178273 c -0.5137115,0 -0.9267902,-0.465493 -0.9267902,-1.042968 V 2.8867188 c 0,-0.5774768 0.4130787,-1.0410157 0.9267902,-1.0410157 z M 8.2910534,13.966797 a 0.32325035,0.35355338 0 0 1 0.3232158,0.353515 0.32325035,0.35355338 0 0 1 -0.3232158,0.353516 0.32325035,0.35355338 0 0 1 -0.3232158,-0.353516 0.32325035,0.35355338 0 0 1 0.3232158,-0.353515 z"
         id="rect26"
         style="fill:#000000;stroke:none;stroke-width:0.95618516"
         inkscape:connector-curvature="0" />
    </g>
  </g>
</svg>
