<svg height="480pt" viewBox="0 0 480 480" width="480pt" xmlns="http://www.w3.org/2000/svg"><path d="m280 88h48l-80-80v48c0 17.671875 14.328125 32 32 32zm0 0" fill="#bddbff"/><path d="m424.878906 280.878906c-.957031-2.558594-2-5.039062-3.039062-7.4375-2.417969-5.277344-1.742188-11.453125 1.761718-16.082031l20.878907-27.839844-34-34-27.839844 20.878907c-4.628906 3.503906-10.804687 4.179687-16.082031 1.761718-2.398438-1.039062-4.878906-2.082031-7.4375-3.039062-5.457032-2.023438-9.359375-6.878906-10.160156-12.640625l-4.960938-34.480469h-48l-4.960938 34.480469c-.800781 5.761719-4.703124 10.617187-10.160156 12.640625-2.558594.957031-5.039062 2-7.4375 3.039062-5.277344 2.417969-11.453125 1.742188-16.082031-1.761718l-27.839844-20.878907-34 34 20.878907 27.839844c3.503906 4.628906 4.179687 10.804687 1.761718 16.082031-1.039062 2.398438-2.082031 4.878906-3.039062 7.4375-2.023438 5.457032-6.878906 9.359375-12.640625 10.160156l-34.480469 4.960938v48l34.480469 4.960938c5.761719.800781 10.617187 4.703124 12.640625 10.160156.957031 2.558594 2 5.039062 3.039062 7.4375 2.417969 5.277344 1.742188 11.453125-1.761718 16.082031l-20.878907 27.839844 34 34 27.28125-20.480469.558594-.398438c4.628906-3.503906 10.804687-4.179687 16.082031-1.761718 1.679688.71875 3.4375 1.519531 5.277344 2.160156.722656.320312 1.441406.640625 2.160156.878906 5.457032 2.023438 9.359375 6.878906 10.160156 12.640625l4.960938 34.480469h48l4.960938-34.480469c.800781-5.761719 4.703124-10.617187 10.160156-12.640625 2.558594-.957031 5.039062-2 7.4375-3.039062 5.277344-2.417969 11.453125-1.742188 16.082031 1.761718l27.839844 20.878907 34-34-20.878907-27.839844c-3.503906-4.628906-4.179687-10.804687-1.761718-16.082031 1.039062-2.398438 2.082031-4.878906 3.039062-7.4375 2.023438-5.457032 6.878906-9.359375 12.640625-10.160156l34.480469-4.960938v-48l-34.480469-4.960938c-5.761719-.800781-10.617187-4.703124-12.640625-10.160156zm-104.878906 111.121094c-39.765625 0-72-32.234375-72-72s32.234375-72 72-72 72 32.234375 72 72-32.234375 72-72 72zm0 0" fill="#bddbff"/><g fill="#3d9ae2"><path d="m312 296h16c4.417969 0 8 3.582031 8 8h16c0-13.253906-10.746094-24-24-24v-8h-16v8c-13.253906 0-24 10.746094-24 24s10.746094 24 24 24h16c4.417969 0 8 3.582031 8 8s-3.582031 8-8 8h-16c-4.417969 0-8-3.582031-8-8h-16c0 13.253906 10.746094 24 24 24v8h16v-8c13.253906 0 24-10.746094 24-24s-10.746094-24-24-24h-16c-4.417969 0-8-3.582031-8-8s3.582031-8 8-8zm0 0"/><path d="m320 240c-44.183594 0-80 35.816406-80 80s35.816406 80 80 80 80-35.816406 80-80c-.046875-44.164062-35.835938-79.953125-80-80zm0 144c-35.347656 0-64-28.652344-64-64s28.652344-64 64-64 64 28.652344 64 64c-.039062 35.328125-28.671875 63.960938-64 64zm0 0"/><path d="m473.144531 288.078125-34.527343-4.957031c-2.851563-.394532-5.253907-2.328125-6.242188-5.03125-1.007812-2.699219-2.101562-5.296875-3.246094-7.953125-1.214844-2.625-.878906-5.703125.871094-8l20.878906-27.839844c2.390625-3.1875 2.070313-7.640625-.742187-10.457031l-34-34c-2.816407-2.8125-7.273438-3.125-10.457031-.734375l-27.871094 20.894531c-2.332032 1.753906-5.445313 2.0625-8.074219.800781-2.511719-1.089843-5.117187-2.183593-7.855469-3.199219-2.699218-1.003906-4.625-3.417968-5-6.273437l-4.957031-34.480469c-.574219-3.933594-3.949219-6.847656-7.921875-6.847656h-8v-72c-.105469-.863281-.277344-1.722656-.511719-2.558594-.089843-.257812-.152343-.503906-.265625-.753906-.386718-.871094-.925781-1.664062-1.597656-2.34375l-80-80c-.679688-.667969-1.472656-1.210938-2.34375-1.601562-.25-.109376-.488281-.175782-.738281-.261719-.835938-.222657-1.683594-.3828128-2.542969-.480469h-208c-22.082031.0273438-39.9726562 17.917969-40 40v352c.0273438 22.082031 17.917969 39.972656 40 40h165.726562l18.136719 18.136719c2.816407 2.8125 7.273438 3.125 10.457031.734375l27.128907-20.359375.742187-.535157c2.339844-1.761718 5.464844-2.070312 8.105469-.800781l.917969.398438c1.601562.683593 3.199218 1.378906 4.304687 1.746093.9375.414063 1.871094.800782 2.601563 1.054688 2.699218 1.003906 4.625 3.417969 5 6.273438l4.957031 34.480468c.5625 3.941406 3.9375 6.871094 7.921875 6.871094h48c3.976562 0 7.351562-2.917969 7.921875-6.855469l4.964844-34.527343c.390625-2.859376 2.335937-5.261719 5.050781-6.242188 2.679688-1.007812 5.285156-2.101562 7.933594-3.246094 2.621094-1.222656 5.703125-.886718 8 .871094l27.839844 20.871094c3.183593 2.390625 7.640624 2.078125 10.457031-.734375l34-34c2.816406-2.816407 3.132812-7.273438.742187-10.457031l-20.902344-27.871094c-1.722656-2.289063-2.050781-5.34375-.847656-7.945313l.054688-.128906c1.089844-2.527344 2.183594-5.125 3.199218-7.863281 1.007813-2.699219 3.425782-4.621094 6.28125-4.992188l34.480469-4.957031c3.925781-.585937 6.828125-3.957031 6.824219-7.921875v-48c0-3.976562-2.917969-7.351562-6.855469-7.921875zm-164.457031-208.078125h-28.6875c-13.253906 0-24-10.746094-24-24v-28.6875zm-292.6875 312v-352c0-13.253906 10.746094-24 24-24h200v40c.027344 22.082031 17.917969 39.972656 40 40h40v64h-24c-3.976562 0-7.351562 2.917969-7.921875 6.855469l-4.964844 34.527343c-.390625 2.859376-2.335937 5.261719-5.050781 6.242188-2.679688 1.007812-5.285156 2.101562-7.933594 3.246094-2.625 1.210937-5.699218.875-8-.871094l-27.839844-20.871094c-3.183593-2.390625-7.640624-2.078125-10.457031.734375l-34 34c-2.816406 2.816407-3.132812 7.273438-.742187 10.457031l20.902344 27.871094c1.742187 2.335938 2.050781 5.441406.800781 8.074219-1.089844 2.527344-2.183594 5.125-3.199219 7.863281-1.007812 2.699219-3.425781 4.621094-6.28125 4.992188l-34.480469 4.957031c-3.925781.582031-6.835937 3.953125-6.832031 7.921875v48c0 3.976562 2.917969 7.351562 6.855469 7.921875l34.527343 4.957031c2.851563.394532 5.253907 2.328125 6.242188 5.03125 1.007812 2.699219 2.101562 5.296875 3.246094 7.953125 1.214844 2.625.878906 5.703125-.871094 8l-20.878906 27.839844c-2.324219 3.132813-2.046875 7.480469.648437 10.296875h-149.769531c-13.253906 0-24-10.746094-24-24zm448-54.929688-27.574219 4c-8.6875 1.179688-16.011719 7.058594-19.042969 15.28125-.894531 2.402344-1.886718 4.746094-2.863281 7.007813-3.585937 7.921875-2.558593 17.171875 2.679688 24.113281l16.722656 22.289063-24.195313 24.183593-22.246093-16.6875c-6.929688-5.257812-16.175781-6.304687-24.105469-2.730468-2.277344 1-4.632812 1.984375-7.015625 2.878906-8.230469 3.015625-14.121094 10.328125-15.320313 19.007812l-3.96875 27.585938h-34.140624l-3.960938-27.566406c-1.21875-8.773438-7.203125-16.140625-15.535156-19.128906-.472656-.160157-.945313-.382813-2.089844-.855469-1.304688-.457031-2.558594-1.007813-3.769531-1.539063l-.796875-.351562c-7.875-3.621094-17.101563-2.652344-24.050782 2.53125l-.726562.511718-21.726562 16.308594-24.195313-24.183594 16.691406-22.246093c5.257813-6.921875 6.308594-16.164063 2.734375-24.089844-.992187-2.285156-1.984375-4.636719-2.871094-7.03125-3.019531-8.226563-10.328124-14.117187-19.007812-15.320313l-27.625-3.96875v-34.140624l27.574219-4c8.6875-1.179688 16.011719-7.058594 19.042969-15.28125.902343-2.402344 1.894531-4.800782 2.832031-6.9375 3.625-7.933594 2.609375-17.21875-2.648438-24.183594l-16.722656-22.289063 24.195313-24.183593 22.246093 16.6875c6.929688 5.261718 16.175781 6.304687 24.105469 2.730468 2.277344-1 4.632812-1.984375 7.015625-2.878906 8.230469-3.015625 14.121094-10.328125 15.320313-19.007812l4-27.617188h34.144531l3.957031 27.566406c1.183594 8.683594 7.058594 16.007813 15.28125 19.039063 2.398438.914062 4.800781 1.898437 6.929688 2.832031 7.9375 3.632812 17.230468 2.621094 24.199218-2.636719l22.289063-16.714843 24.191406 24.183593-16.6875 22.25c-5.261719 6.917969-6.3125 16.164063-2.738281 24.085938.992187 2.289062 1.984375 4.640625 2.871094 7.035156 3.019531 8.226563 10.328124 14.117187 19.007812 15.320313l27.625 4zm0 0"/><path d="m48 48h32v16h-32zm0 0"/><path d="m96 48h48v16h-48zm0 0"/><path d="m48 80h96v16h-96zm0 0"/><path d="m48 144h176v16h-176zm0 0"/><path d="m48 192h16v16h-16zm0 0"/><path d="m80 192h112v16h-112zm0 0"/><path d="m48 240h48v16h-48zm0 0"/><path d="m112 240h16v16h-16zm0 0"/><path d="m48 288h64v16h-64zm0 0"/><path d="m128 288h16v16h-16zm0 0"/></g></svg>