<?xml version="1.0" encoding="UTF-8" standalone="no"?>
<!-- Created with Inkscape (http://www.inkscape.org/) -->

<svg
   xmlns:dc="http://purl.org/dc/elements/1.1/"
   xmlns:cc="http://creativecommons.org/ns#"
   xmlns:rdf="http://www.w3.org/1999/02/22-rdf-syntax-ns#"
   xmlns:svg="http://www.w3.org/2000/svg"
   xmlns="http://www.w3.org/2000/svg"
   xmlns:sodipodi="http://sodipodi.sourceforge.net/DTD/sodipodi-0.dtd"
   xmlns:inkscape="http://www.inkscape.org/namespaces/inkscape"
   width="94mm"
   height="55mm"
   viewBox="0 0 94 55"
   version="1.1"
   id="svg999"
   inkscape:version="0.92.3 (2405546, 2018-03-11)"
   sodipodi:docname="service-worker.svg">
  <defs
     id="defs993">
    <marker
       inkscape:stockid="Arrow2Mend"
       orient="auto"
       refY="0"
       refX="0"
       id="Arrow2Mend"
       style="overflow:visible"
       inkscape:isstock="true">
      <path
         id="path1966"
         style="fill:#ffffff;fill-opacity:1;fill-rule:evenodd;stroke:#ffffff;stroke-width:0.625;stroke-linejoin:round;stroke-opacity:0.98994978"
         d="M 8.7185878,4.0337352 -2.2072895,0.01601326 8.7185884,-4.0017078 c -1.7454984,2.3720609 -1.7354408,5.6174519 -6e-7,8.035443 z"
         transform="scale(-0.6)"
         inkscape:connector-curvature="0" />
    </marker>
    <marker
       inkscape:stockid="Arrow2Mstart"
       orient="auto"
       refY="0"
       refX="0"
       id="Arrow2Mstart"
       style="overflow:visible"
       inkscape:isstock="true">
      <path
         id="path1963"
         style="fill:#ffffff;fill-opacity:1;fill-rule:evenodd;stroke:#ffffff;stroke-width:0.625;stroke-linejoin:round;stroke-opacity:0.98994978"
         d="M 8.7185878,4.0337352 -2.2072895,0.01601326 8.7185884,-4.0017078 c -1.7454984,2.3720609 -1.7354408,5.6174519 -6e-7,8.035443 z"
         transform="scale(0.6)"
         inkscape:connector-curvature="0" />
    </marker>
    <marker
       inkscape:stockid="Arrow2Lend"
       orient="auto"
       refY="0"
       refX="0"
       id="Arrow2Lend"
       style="overflow:visible"
       inkscape:isstock="true">
      <path
         id="path1960"
         style="fill:#000000;fill-opacity:1;fill-rule:evenodd;stroke:#000000;stroke-width:0.625;stroke-linejoin:round;stroke-opacity:1"
         d="M 8.7185878,4.0337352 -2.2072895,0.01601326 8.7185884,-4.0017078 c -1.7454984,2.3720609 -1.7354408,5.6174519 -6e-7,8.035443 z"
         transform="matrix(-1.1,0,0,-1.1,-1.1,0)"
         inkscape:connector-curvature="0" />
    </marker>
    <marker
       inkscape:stockid="Arrow2Lstart"
       orient="auto"
       refY="0"
       refX="0"
       id="Arrow2Lstart"
       style="overflow:visible"
       inkscape:isstock="true">
      <path
         id="path1957"
         style="fill:#000000;fill-opacity:1;fill-rule:evenodd;stroke:#000000;stroke-width:0.625;stroke-linejoin:round;stroke-opacity:1"
         d="M 8.7185878,4.0337352 -2.2072895,0.01601326 8.7185884,-4.0017078 c -1.7454984,2.3720609 -1.7354408,5.6174519 -6e-7,8.035443 z"
         transform="matrix(1.1,0,0,1.1,1.1,0)"
         inkscape:connector-curvature="0" />
    </marker>
    <marker
       inkscape:stockid="Arrow1Lstart"
       orient="auto"
       refY="0"
       refX="0"
       id="Arrow1Lstart"
       style="overflow:visible"
       inkscape:isstock="true">
      <path
         id="path1939"
         d="M 0,0 5,-5 -12.5,0 5,5 Z"
         style="fill:#000000;fill-opacity:1;fill-rule:evenodd;stroke:#000000;stroke-width:1.00000003pt;stroke-opacity:1"
         transform="matrix(0.8,0,0,0.8,10,0)"
         inkscape:connector-curvature="0" />
    </marker>
    <marker
       inkscape:stockid="Arrow1Lend"
       orient="auto"
       refY="0"
       refX="0"
       id="Arrow1Lend"
       style="overflow:visible"
       inkscape:isstock="true">
      <path
         id="path1942"
         d="M 0,0 5,-5 -12.5,0 5,5 Z"
         style="fill:#000000;fill-opacity:1;fill-rule:evenodd;stroke:#000000;stroke-width:1.00000003pt;stroke-opacity:1"
         transform="matrix(-0.8,0,0,-0.8,-10,0)"
         inkscape:connector-curvature="0" />
    </marker>
    <marker
       inkscape:stockid="Arrow2Mstart"
       orient="auto"
       refY="0"
       refX="0"
       id="Arrow2Mstart-1"
       style="overflow:visible"
       inkscape:isstock="true">
      <path
         inkscape:connector-curvature="0"
         id="path1963-0"
         style="fill:#ffffff;fill-opacity:1;fill-rule:evenodd;stroke:#ffffff;stroke-width:0.625;stroke-linejoin:round;stroke-opacity:1"
         d="M 8.7185878,4.0337352 -2.2072895,0.01601326 8.7185884,-4.0017078 c -1.7454984,2.3720609 -1.7354408,5.6174519 -6e-7,8.035443 z"
         transform="scale(0.6)" />
    </marker>
    <marker
       inkscape:stockid="Arrow2Mend"
       orient="auto"
       refY="0"
       refX="0"
       id="Arrow2Mend-1"
       style="overflow:visible"
       inkscape:isstock="true">
      <path
         inkscape:connector-curvature="0"
         id="path1966-2"
         style="fill:#ffffff;fill-opacity:1;fill-rule:evenodd;stroke:#ffffff;stroke-width:0.625;stroke-linejoin:round;stroke-opacity:1"
         d="M 8.7185878,4.0337352 -2.2072895,0.01601326 8.7185884,-4.0017078 c -1.7454984,2.3720609 -1.7354408,5.6174519 -6e-7,8.035443 z"
         transform="scale(-0.6)" />
    </marker>
    <marker
       inkscape:stockid="Arrow2Mstart"
       orient="auto"
       refY="0"
       refX="0"
       id="Arrow2Mstart-1-2"
       style="overflow:visible"
       inkscape:isstock="true">
      <path
         inkscape:connector-curvature="0"
         id="path1963-0-1"
         style="fill:#000000;fill-opacity:1;fill-rule:evenodd;stroke:#000000;stroke-width:0.625;stroke-linejoin:round;stroke-opacity:1"
         d="M 8.7185878,4.0337352 -2.2072895,0.01601326 8.7185884,-4.0017078 c -1.7454984,2.3720609 -1.7354408,5.6174519 -6e-7,8.035443 z"
         transform="scale(0.6)" />
    </marker>
    <marker
       inkscape:stockid="Arrow2Mend"
       orient="auto"
       refY="0"
       refX="0"
       id="Arrow2Mend-1-6"
       style="overflow:visible"
       inkscape:isstock="true">
      <path
         inkscape:connector-curvature="0"
         id="path1966-2-3"
         style="fill:#000000;fill-opacity:1;fill-rule:evenodd;stroke:#000000;stroke-width:0.625;stroke-linejoin:round;stroke-opacity:1"
         d="M 8.7185878,4.0337352 -2.2072895,0.01601326 8.7185884,-4.0017078 c -1.7454984,2.3720609 -1.7354408,5.6174519 -6e-7,8.035443 z"
         transform="scale(-0.6)" />
    </marker>
    <marker
       inkscape:stockid="Arrow2Mstart"
       orient="auto"
       refY="0"
       refX="0"
       id="Arrow2Mstart-1-4"
       style="overflow:visible"
       inkscape:isstock="true">
      <path
         inkscape:connector-curvature="0"
         id="path1963-0-6"
         style="fill:#ffffff;fill-opacity:1;fill-rule:evenodd;stroke:#ffffff;stroke-width:0.625;stroke-linejoin:round;stroke-opacity:1"
         d="M 8.7185878,4.0337352 -2.2072895,0.01601326 8.7185884,-4.0017078 c -1.7454984,2.3720609 -1.7354408,5.6174519 -6e-7,8.035443 z"
         transform="scale(0.6)" />
    </marker>
    <marker
       inkscape:stockid="Arrow2Mend"
       orient="auto"
       refY="0"
       refX="0"
       id="Arrow2Mend-1-8"
       style="overflow:visible"
       inkscape:isstock="true">
      <path
         inkscape:connector-curvature="0"
         id="path1966-2-9"
         style="fill:#ffffff;fill-opacity:1;fill-rule:evenodd;stroke:#ffffff;stroke-width:0.625;stroke-linejoin:round;stroke-opacity:1"
         d="M 8.7185878,4.0337352 -2.2072895,0.01601326 8.7185884,-4.0017078 c -1.7454984,2.3720609 -1.7354408,5.6174519 -6e-7,8.035443 z"
         transform="scale(-0.6)" />
    </marker>
  </defs>
  <sodipodi:namedview
     id="base"
     pagecolor="#ffffff"
     bordercolor="#666666"
     borderopacity="1.0"
     inkscape:pageopacity="0.0"
     inkscape:pageshadow="2"
     inkscape:zoom="1.979899"
     inkscape:cx="348.71021"
     inkscape:cy="23.225148"
     inkscape:document-units="mm"
     inkscape:current-layer="layer1"
     showgrid="false"
     showguides="true"
     inkscape:guide-bbox="true"
     inkscape:snap-to-guides="false"
     inkscape:window-width="2560"
     inkscape:window-height="1377"
     inkscape:window-x="-8"
     inkscape:window-y="-8"
     inkscape:window-maximized="1">
    <sodipodi:guide
       position="33.828868,69.358633"
       orientation="0,1"
       id="guide1929"
       inkscape:locked="false" />
    <sodipodi:guide
       position="94.683034,99.596729"
       orientation="1,0"
       id="guide1931"
       inkscape:locked="false" />
    <sodipodi:guide
       position="69.807478,64.504"
       orientation="1,0"
       id="guide6518"
       inkscape:locked="false" />
    <sodipodi:guide
       position="54.239582,75.689734"
       orientation="0,1"
       id="guide6520"
       inkscape:locked="false" />
    <sodipodi:guide
       position="56.223957,64.066966"
       orientation="0,1"
       id="guide6522"
       inkscape:locked="false" />
    <sodipodi:guide
       position="87.330316,82.586286"
       orientation="1,0"
       id="guide7328"
       inkscape:locked="false" />
    <sodipodi:guide
       position="86.194421,76.639539"
       orientation="1,0"
       id="guide7330"
       inkscape:locked="false" />
    <sodipodi:guide
       position="68.821902,87.397138"
       orientation="0,1"
       id="guide7332"
       inkscape:locked="false" />
    <sodipodi:guide
       position="69.222806,53.854811"
       orientation="0,1"
       id="guide7334"
       inkscape:locked="false" />
  </sodipodi:namedview>
  <metadata
     id="metadata996">
    <rdf:RDF>
      <cc:Work
         rdf:about="">
        <dc:format>image/svg+xml</dc:format>
        <dc:type
           rdf:resource="http://purl.org/dc/dcmitype/StillImage" />
        <dc:title></dc:title>
      </cc:Work>
    </rdf:RDF>
  </metadata>
  <g
     inkscape:label="Layer 1"
     inkscape:groupmode="layer"
     id="layer1"
     transform="translate(0,-242)">
    <g
       id="g1600"
       transform="matrix(0.03937252,0,0,0.03937252,40.775761,257.43716)"
       style="fill:#ffffff">
      <path
         id="path1544"
         d="m 280,88 h 48 L 248,8 v 48 c 0,17.671875 14.32812,32 32,32 z m 0,0"
         inkscape:connector-curvature="0"
         style="fill:#ffffff" />
      <path
         id="path1546"
         d="m 424.87891,280.87891 c -0.95704,-2.5586 -2,-5.03907 -3.03907,-7.4375 -2.41797,-5.27735 -1.74218,-11.45313 1.76172,-16.08204 l 20.87891,-27.83984 -34,-34 -27.83985,20.87891 c -4.6289,3.5039 -10.80468,4.17968 -16.08203,1.76172 -2.39843,-1.03907 -4.8789,-2.08204 -7.4375,-3.03907 -5.45703,-2.02343 -9.35937,-6.8789 -10.16015,-12.64062 L 344,168 h -48 l -4.96094,34.48047 c -0.80078,5.76172 -4.70312,10.61719 -10.16015,12.64062 -2.5586,0.95703 -5.03907,2 -7.4375,3.03907 -5.27735,2.41796 -11.45313,1.74218 -16.08204,-1.76172 l -27.83984,-20.87891 -34,34 20.87891,27.83984 c 3.5039,4.62891 4.17968,10.80469 1.76172,16.08204 -1.03907,2.39843 -2.08204,4.8789 -3.03907,7.4375 -2.02343,5.45703 -6.8789,9.35937 -12.64062,10.16015 L 168,296 v 48 l 34.48047,4.96094 c 5.76172,0.80078 10.61719,4.70312 12.64062,10.16015 0.95703,2.5586 2,5.03907 3.03907,7.4375 2.41796,5.27735 1.74218,11.45313 -1.76172,16.08204 l -20.87891,27.83984 34,34 L 256.80078,424 l 0.55859,-0.39844 c 4.62891,-3.5039 10.80469,-4.17968 16.08204,-1.76172 1.67968,0.71875 3.4375,1.51954 5.27734,2.16016 0.72266,0.32031 1.44141,0.64063 2.16016,0.87891 5.45703,2.02343 9.35937,6.8789 10.16015,12.64062 L 296,472 h 48 l 4.96094,-34.48047 c 0.80078,-5.76172 4.70312,-10.61719 10.16015,-12.64062 2.5586,-0.95703 5.03907,-2 7.4375,-3.03907 5.27735,-2.41796 11.45313,-1.74218 16.08203,1.76172 l 27.83985,20.87891 34,-34 -20.87891,-27.83984 c -3.5039,-4.62891 -4.17969,-10.80469 -1.76172,-16.08204 1.03907,-2.39843 2.08203,-4.8789 3.03907,-7.4375 2.02343,-5.45703 6.8789,-9.35937 12.64062,-10.16015 L 472,344 v -48 l -34.48047,-4.96094 c -5.76172,-0.80078 -10.61719,-4.70312 -12.64062,-10.16015 z M 320,392 c -39.76563,0 -72,-32.23438 -72,-72 0,-39.76563 32.23437,-72 72,-72 39.76562,0 72,32.23437 72,72 0,39.76562 -32.23438,72 -72,72 z m 0,0"
         inkscape:connector-curvature="0"
         style="fill:#ffffff" />
      <g
         id="g1574"
         style="fill:#ffffff">
        <path
           id="path1548"
           d="m 312,296 h 16 c 4.41797,0 8,3.58203 8,8 h 16 c 0,-13.25391 -10.74609,-24 -24,-24 v 0 h -16 v 0 c -13.25391,0 -24,10.74609 -24,24 0,13.25391 10.74609,24 24,24 h 16 c 4.41797,0 8,3.58203 8,8 0,4.41797 -3.58203,8 -8,8 h -16 c -4.41797,0 -8,-3.58203 -8,-8 h -16 c 0,13.25391 10.74609,24 24,24 v 0 h 16 v 0 c 13.25391,0 24,-10.74609 24,-24 0,-13.25391 -10.74609,-24 -24,-24 h -16 c -4.41797,0 -8,-3.58203 -8,-8 0,-4.41797 3.58203,-8 8,-8 z"
           inkscape:connector-curvature="0"
           sodipodi:nodetypes="ssccccccssssssccccccsssss"
           style="fill:#ffffff" />
        <path
           id="path1550"
           d="m 320,240 c -44.18359,0 -80,35.81641 -80,80 0,44.18359 35.81641,80 80,80 44.18359,0 80,-35.81641 80,-80 -0.0469,-44.16406 -35.83594,-79.95313 -80,-80 z m 0,144 c -35.34766,0 -64,-28.65234 -64,-64 0,-35.34766 28.65234,-64 64,-64 35.34766,0 64,28.65234 64,64 -0.0391,35.32812 -28.67188,63.96094 -64,64 z m 0,0"
           inkscape:connector-curvature="0"
           style="fill:#ffffff" />
        <path
           id="path1552"
           d="m 473.14453,288.07812 -34.52734,-4.95703 c -2.85157,-0.39453 -5.25391,-2.32812 -6.24219,-5.03125 -1.00781,-2.69922 -2.10156,-5.29687 -3.24609,-7.95312 -1.21485,-2.625 -0.87891,-5.70313 0.87109,-8 l 20.87891,-27.83984 c 2.39062,-3.1875 2.07031,-7.64063 -0.74219,-10.45704 l -34,-34 c -2.81641,-2.8125 -7.27344,-3.125 -10.45703,-0.73437 L 377.80859,210 c -2.33203,1.75391 -5.44531,2.0625 -8.07422,0.80078 -2.51171,-1.08984 -5.11718,-2.18359 -7.85546,-3.19922 -2.69922,-1.0039 -4.625,-3.41797 -5,-6.27343 l -4.95704,-34.48047 C 351.34766,162.91406 347.97266,160 344,160 h -8 V 88 c -0.10547,-0.863281 -0.27734,-1.722656 -0.51172,-2.558594 -0.0898,-0.257812 -0.15234,-0.503906 -0.26562,-0.753906 -0.38672,-0.871094 -0.92579,-1.664062 -1.59766,-2.34375 l -80,-80 c -0.67969,-0.667969 -1.47266,-1.210938 -2.34375,-1.601562 -0.25,-0.109376 -0.48828,-0.175782 -0.73828,-0.261719 C 249.70703,0.257812 248.85937,0.0976562 248,0 H 40 C 17.917969,0.0273438 0.0273438,17.917969 0,40 v 352 c 0.0273438,22.08203 17.917969,39.97266 40,40 h 165.72656 l 18.13672,18.13672 c 2.81641,2.8125 7.27344,3.125 10.45703,0.73437 l 27.12891,-20.35937 0.74219,-0.53516 c 2.33984,-1.76172 5.46484,-2.07031 8.10546,-0.80078 l 0.91797,0.39844 c 1.60157,0.68359 3.19922,1.3789 4.30469,1.74609 0.9375,0.41406 1.8711,0.80078 2.60156,1.05469 2.69922,1.00391 4.625,3.41797 5,6.27344 l 4.95703,34.48047 C 288.64062,477.07031 292.01562,480 296,480 h 48 c 3.97656,0 7.35156,-2.91797 7.92187,-6.85547 l 4.96485,-34.52734 c 0.39062,-2.85938 2.33594,-5.26172 5.05078,-6.24219 2.67969,-1.00781 5.28516,-2.10156 7.93359,-3.24609 2.6211,-1.22266 5.70313,-0.88672 8,0.87109 l 27.83985,20.87109 c 3.18359,2.39063 7.64062,2.07813 10.45703,-0.73437 l 34,-34 c 2.81641,-2.81641 3.13281,-7.27344 0.74219,-10.45703 l -20.90235,-27.8711 c -1.72265,-2.28906 -2.05078,-5.34375 -0.84765,-7.94531 l 0.0547,-0.12891 c 1.08985,-2.52734 2.1836,-5.125 3.19922,-7.86328 1.00782,-2.69922 3.42578,-4.62109 6.28125,-4.99218 l 34.48047,-4.95703 C 477.10156,351.33594 480.00391,347.96484 480,344 v -48 c 0,-3.97656 -2.91797,-7.35156 -6.85547,-7.92188 z M 308.6875,80 H 280 C 266.74609,80 256,69.253906 256,56 V 27.3125 Z M 16,392 V 40 C 16,26.746094 26.746094,16 40,16 h 200 v 40 c 0.0273,22.082031 17.91797,39.972656 40,40 h 40 v 64 h -24 c -3.97656,0 -7.35156,2.91797 -7.92188,6.85547 l -4.96484,34.52734 c -0.39062,2.85938 -2.33594,5.26172 -5.05078,6.24219 -2.67969,1.00781 -5.28516,2.10156 -7.93359,3.24609 -2.625,1.21094 -5.69922,0.875 -8,-0.87109 l -27.83985,-20.87109 c -3.18359,-2.39063 -7.64062,-2.07813 -10.45703,0.73437 l -34,34 c -2.81641,2.81641 -3.13281,7.27344 -0.74219,10.45703 l 20.90235,27.8711 c 1.74218,2.33593 2.05078,5.4414 0.80078,8.07421 -1.08985,2.52735 -2.1836,5.125 -3.19922,7.86329 -1.00781,2.69921 -3.42578,4.62109 -6.28125,4.99218 l -34.48047,4.95703 C 162.90625,288.66016 159.99609,292.03125 160,296 v 48 c 0,3.97656 2.91797,7.35156 6.85547,7.92187 l 34.52734,4.95704 c 2.85156,0.39453 5.25391,2.32812 6.24219,5.03125 1.00781,2.69921 2.10156,5.29687 3.24609,7.95312 1.21485,2.625 0.87891,5.70313 -0.87109,8 l -20.87891,27.83984 c -2.32422,3.13282 -2.04687,7.48047 0.64844,10.29688 H 40 C 26.746094,416 16,405.25391 16,392 Z m 448,-54.92969 -27.57422,4 c -8.6875,1.17969 -16.01172,7.0586 -19.04297,15.28125 -0.89453,2.40235 -1.88672,4.7461 -2.86328,7.00781 -3.58594,7.92188 -2.55859,17.17188 2.67969,24.11329 l 16.72266,22.28906 -24.19532,24.18359 -22.24609,-16.6875 C 380.55078,412 371.30469,410.95312 363.375,414.52734 c -2.27734,1 -4.63281,1.98438 -7.01562,2.87891 -8.23047,3.01562 -14.1211,10.32812 -15.32032,19.00781 L 337.07031,464 h -34.14062 l -3.96094,-27.56641 c -1.21875,-8.77343 -7.20312,-16.14062 -15.53516,-19.1289 -0.47265,-0.16016 -0.94531,-0.38282 -2.08984,-0.85547 -1.30469,-0.45703 -2.55859,-1.00781 -3.76953,-1.53906 l -0.79688,-0.35157 c -7.875,-3.62109 -17.10156,-2.65234 -24.05078,2.53125 L 252,417.60156 l -21.72656,16.3086 -24.19531,-24.1836 16.6914,-22.24609 c 5.25781,-6.92188 6.3086,-16.16406 2.73438,-24.08985 -0.99219,-2.28515 -1.98438,-4.63671 -2.8711,-7.03125 -3.01953,-8.22656 -10.32812,-14.11718 -19.00781,-15.32031 L 176,337.07031 v -34.14062 l 27.57422,-4 c 8.6875,-1.17969 16.01172,-7.0586 19.04297,-15.28125 0.90234,-2.40235 1.89453,-4.80078 2.83203,-6.9375 3.625,-7.9336 2.60937,-17.21875 -2.64844,-24.1836 l -16.72265,-22.28906 24.19531,-24.18359 22.24609,16.6875 c 6.92969,5.26172 16.17578,6.30468 24.10547,2.73047 2.27734,-1 4.63281,-1.98438 7.01563,-2.87891 8.23046,-3.01563 14.12109,-10.32813 15.32031,-19.00781 l 4,-27.61719 h 34.14453 l 3.95703,27.56641 c 1.18359,8.68359 7.05859,16.00781 15.28125,19.03906 2.39844,0.91406 4.80078,1.89844 6.92969,2.83203 7.9375,3.63281 17.23047,2.62109 24.19922,-2.63672 l 22.28906,-16.71484 24.1914,24.18359 -16.6875,22.25 c -5.26171,6.91797 -6.3125,16.16406 -2.73828,24.08594 0.99219,2.28906 1.98438,4.64062 2.8711,7.03515 3.01953,8.22657 10.32812,14.11719 19.00781,15.32032 l 27.625,4 z m 0,0"
           inkscape:connector-curvature="0"
           style="fill:#ffffff" />
        <path
           id="path1554"
           d="M 48,48 H 80 V 64 H 48 Z m 0,0"
           inkscape:connector-curvature="0"
           style="fill:#ffffff" />
        <path
           id="path1556"
           d="m 96,48 h 48 V 64 H 96 Z m 0,0"
           inkscape:connector-curvature="0"
           style="fill:#ffffff" />
        <path
           id="path1558"
           d="m 48,80 h 96 V 96 H 48 Z m 0,0"
           inkscape:connector-curvature="0"
           style="fill:#ffffff" />
        <path
           id="path1560"
           d="m 48,144 h 176 v 16 H 48 Z m 0,0"
           inkscape:connector-curvature="0"
           style="fill:#ffffff" />
        <path
           id="path1562"
           d="m 48,192 h 16 v 16 H 48 Z m 0,0"
           inkscape:connector-curvature="0"
           style="fill:#ffffff" />
        <path
           id="path1564"
           d="m 80,192 h 112 v 16 H 80 Z m 0,0"
           inkscape:connector-curvature="0"
           style="fill:#ffffff" />
        <path
           id="path1566"
           d="m 48,240 h 48 v 16 H 48 Z m 0,0"
           inkscape:connector-curvature="0"
           style="fill:#ffffff" />
        <path
           id="path1568"
           d="m 112,240 h 16 v 16 h -16 z m 0,0"
           inkscape:connector-curvature="0"
           style="fill:#ffffff" />
        <path
           id="path1570"
           d="m 48,288 h 64 v 16 H 48 Z m 0,0"
           inkscape:connector-curvature="0"
           style="fill:#ffffff" />
        <path
           id="path1572"
           d="m 128,288 h 16 v 16 h -16 z m 0,0"
           inkscape:connector-curvature="0"
           style="fill:#ffffff" />
      </g>
    </g>
    <g
       id="g1666"
       transform="matrix(0.26458333,0,0,0.26458333,77.83633,242.47462)"
       style="fill:#ffffff">
      <g
         id="g1608"
         style="fill:#ffffff">
	<path
   id="path1602"
   d="m 55.188,41.863 -1.444,-0.277 c -0.677,-0.13 -1.21,-0.573 -1.462,-1.216 -0.253,-0.642 -0.163,-1.329 0.245,-1.885 l 0.907,-1.236 c 0.292,-0.398 0.25,-0.95 -0.1,-1.299 l -1.959,-1.958 c -0.339,-0.338 -0.872,-0.389 -1.268,-0.121 l -1.217,0.824 c -0.57,0.389 -1.262,0.451 -1.895,0.175 -0.632,-0.275 -1.055,-0.825 -1.16,-1.508 L 45.602,31.847 C 45.528,31.36 45.108,31 44.615,31 h -2.77 c -0.479,0 -0.892,0.341 -0.982,0.812 l -0.358,1.865 c -0.127,0.662 -0.558,1.19 -1.181,1.448 -0.625,0.261 -1.301,0.189 -1.86,-0.189 l -1.572,-1.064 c -0.397,-0.268 -0.929,-0.217 -1.268,0.121 l -1.959,1.958 c -0.35,0.349 -0.392,0.9 -0.1,1.299 l 0.907,1.236 c 0.408,0.556 0.498,1.243 0.245,1.885 -0.252,0.643 -0.785,1.086 -1.462,1.216 l -1.444,0.277 C 30.341,41.954 30,42.366 30,42.846 v 2.77 c 0,0.493 0.36,0.913 0.848,0.988 l 1.515,0.233 c 0.683,0.105 1.232,0.528 1.508,1.16 0.276,0.633 0.212,1.323 -0.175,1.895 l -0.824,1.217 c -0.269,0.396 -0.218,0.929 0.121,1.268 l 1.958,1.959 c 0.348,0.349 0.899,0.39 1.299,0.1 l 1.236,-0.907 c 0.555,-0.408 1.244,-0.497 1.885,-0.245 0.643,0.252 1.086,0.785 1.216,1.462 l 0.277,1.444 c 0.09,0.469 0.502,0.81 0.982,0.81 h 2.77 c 0.493,0 0.913,-0.36 0.988,-0.848 l 0.164,-1.065 c 0.105,-0.688 0.552,-1.256 1.193,-1.522 0.644,-0.266 1.361,-0.179 1.921,0.232 l 0.869,0.638 c 0.4,0.293 0.951,0.25 1.299,-0.1 l 1.958,-1.959 c 0.339,-0.339 0.39,-0.871 0.121,-1.268 l -0.824,-1.217 c -0.387,-0.571 -0.451,-1.262 -0.175,-1.895 0.275,-0.632 0.825,-1.055 1.508,-1.16 l 1.515,-0.233 C 55.64,46.528 56,46.108 56,45.615 v -2.77 c 0,-0.479 -0.341,-0.891 -0.812,-0.982 z M 54,44.758 53.333,44.861 c -1.354,0.208 -2.489,1.082 -3.036,2.337 -0.548,1.256 -0.416,2.682 0.352,3.815 l 0.361,0.533 -0.768,0.768 -0.177,-0.13 c -1.13,-0.827 -2.575,-1.002 -3.869,-0.467 -1.294,0.536 -2.192,1.682 -2.405,3.065 L 43.758,55 h -1.086 l -0.121,-0.633 c -0.259,-1.346 -1.175,-2.447 -2.449,-2.947 -1.275,-0.498 -2.695,-0.314 -3.8,0.494 l -0.544,0.399 -0.768,-0.768 0.361,-0.533 c 0.768,-1.134 0.899,-2.56 0.352,-3.815 C 35.156,45.942 34.02,45.068 32.667,44.86 L 32,44.758 v -1.086 l 0.633,-0.121 c 1.346,-0.259 2.447,-1.175 2.947,-2.449 0.5,-1.275 0.315,-2.695 -0.494,-3.8 l -0.399,-0.544 0.768,-0.768 0.889,0.602 c 1.107,0.752 2.51,0.893 3.747,0.381 1.237,-0.513 2.127,-1.604 2.38,-2.919 L 42.672,33 h 1.086 l 0.103,0.667 c 0.208,1.354 1.082,2.489 2.337,3.036 1.256,0.547 2.682,0.416 3.815,-0.352 l 0.533,-0.361 0.768,0.768 -0.399,0.544 c -0.81,1.104 -0.994,2.524 -0.494,3.8 0.5,1.274 1.602,2.19 2.947,2.449 L 54,43.672 Z"
   inkscape:connector-curvature="0"
   style="fill:#ffffff" />

	<path
   id="path1604"
   d="m 43,39 c -2.757,0 -5,2.243 -5,5 0,2.757 2.243,5 5,5 2.757,0 5,-2.243 5,-5 0,-2.757 -2.243,-5 -5,-5 z m 0,8 c -1.654,0 -3,-1.346 -3,-3 0,-1.654 1.346,-3 3,-3 1.654,0 3,1.346 3,3 0,1.654 -1.346,3 -3,3 z"
   inkscape:connector-curvature="0"
   style="fill:#ffffff" />

	<path
   id="path1606"
   d="M 26,41 C 25.173,41 24.363,40.984 23.568,40.956 23.082,40.938 22.613,40.907 22.139,40.879 21.846,40.862 21.544,40.851 21.256,40.83 20.626,40.785 20.014,40.726 19.409,40.663 19.295,40.651 19.176,40.643 19.063,40.631 18.37,40.555 17.695,40.468 17.037,40.372 17.02,40.37 17.003,40.368 16.986,40.365 13.601,39.865 10.696,39.102 8.425,38.196 8.413,38.192 8.401,38.187 8.389,38.182 7.97,38.014 7.577,37.84 7.203,37.663 7.16,37.642 7.114,37.622 7.071,37.601 6.735,37.439 6.424,37.273 6.126,37.104 6.056,37.064 5.982,37.025 5.914,36.984 5.655,36.832 5.419,36.677 5.193,36.521 5.107,36.461 5.018,36.401 4.936,36.341 4.745,36.2 4.574,36.058 4.41,35.915 4.321,35.836 4.232,35.758 4.15,35.679 4.016,35.549 3.898,35.418 3.787,35.287 3.709,35.195 3.634,35.102 3.568,35.01 3.48,34.887 3.405,34.764 3.338,34.641 3.284,34.542 3.236,34.443 3.195,34.344 3.146,34.223 3.107,34.102 3.079,33.982 3.041,33.823 3,33.661 3,33.5 v -8.207 c 0.028,0.026 0.063,0.051 0.092,0.077 0.219,0.191 0.44,0.382 0.69,0.566 C 7.549,28.786 15.082,31 26,31 c 10.873,0 18.386,-2.196 22.169,-5.028 0.302,-0.22 0.574,-0.447 0.83,-0.678 0,0 0,0 0,0 L 49,29 c 0,0.553 0.447,1 1,1 0.553,0 1,-0.447 1,-1 V 22 21.5 9.5 9 C 51,8.818 50.938,8.657 50.854,8.51 49.696,4.22 41.077,0 26,0 10.923,0 2.303,4.22 1.146,8.51 1.062,8.657 1,8.818 1,9 v 0.5 12 0.5 11.5 0.5 12 c 0,0.161 0.042,0.313 0.115,0.448 1.139,4.833 10.691,7.68 19.81,8.364 0.025,0.002 0.051,0.003 0.076,0.003 0.519,0 0.957,-0.399 0.996,-0.925 0.041,-0.551 -0.371,-1.031 -0.922,-1.072 C 9.961,51.984 3.484,48.6 3.032,45.838 3.024,45.793 3.014,45.75 3,45.707 v -8.414 c 0.028,0.026 0.063,0.051 0.092,0.077 0.219,0.191 0.44,0.382 0.69,0.566 C 7.549,40.786 15.082,43 26,43 c 0.553,0 1,-0.447 1,-1 0,-0.553 -0.447,-1 -1,-1 z M 3.601,13.797 c 0.3,0.236 0.624,0.469 0.975,0.696 0.073,0.047 0.155,0.093 0.231,0.14 0.294,0.183 0.605,0.362 0.932,0.538 0.121,0.065 0.242,0.129 0.368,0.193 0.365,0.186 0.748,0.366 1.151,0.542 0.066,0.029 0.126,0.059 0.192,0.087 0.469,0.199 0.967,0.389 1.486,0.572 0.143,0.051 0.293,0.099 0.44,0.149 0.412,0.139 0.838,0.272 1.279,0.401 0.159,0.046 0.315,0.094 0.478,0.139 0.585,0.162 1.189,0.316 1.823,0.458 0.087,0.02 0.181,0.037 0.269,0.056 0.559,0.122 1.139,0.235 1.735,0.34 0.202,0.036 0.407,0.07 0.613,0.104 0.567,0.093 1.151,0.179 1.75,0.257 0.154,0.02 0.302,0.042 0.457,0.062 0.744,0.09 1.513,0.167 2.305,0.233 0.195,0.016 0.398,0.028 0.596,0.042 0.633,0.046 1.28,0.084 1.942,0.114 0.241,0.011 0.481,0.022 0.727,0.03 0.862,0.029 1.74,0.05 2.65,0.05 0.91,0 1.788,-0.021 2.65,-0.05 0.245,-0.008 0.485,-0.02 0.727,-0.03 0.662,-0.03 1.309,-0.068 1.942,-0.114 0.198,-0.015 0.401,-0.026 0.596,-0.042 0.791,-0.065 1.561,-0.143 2.305,-0.233 0.156,-0.019 0.303,-0.042 0.457,-0.062 0.599,-0.078 1.182,-0.164 1.75,-0.257 0.206,-0.034 0.411,-0.068 0.613,-0.104 0.596,-0.105 1.176,-0.218 1.735,-0.34 0.088,-0.019 0.182,-0.036 0.269,-0.056 0.634,-0.142 1.238,-0.296 1.823,-0.458 0.163,-0.045 0.319,-0.092 0.478,-0.139 0.441,-0.128 0.867,-0.262 1.279,-0.401 0.147,-0.05 0.297,-0.098 0.44,-0.149 0.518,-0.184 1.017,-0.374 1.486,-0.572 0.067,-0.028 0.127,-0.059 0.192,-0.087 0.403,-0.176 0.786,-0.356 1.151,-0.542 0.125,-0.064 0.247,-0.128 0.368,-0.193 0.327,-0.175 0.638,-0.354 0.932,-0.538 0.076,-0.047 0.158,-0.093 0.231,-0.14 0.351,-0.227 0.675,-0.459 0.975,-0.696 0.075,-0.06 0.142,-0.12 0.214,-0.18 0.13,-0.108 0.267,-0.215 0.387,-0.324 V 21.5 c 0,0.161 -0.041,0.323 -0.079,0.485 -0.028,0.121 -0.067,0.241 -0.116,0.362 -0.04,0.099 -0.089,0.198 -0.143,0.297 -0.067,0.123 -0.142,0.246 -0.23,0.369 -0.066,0.092 -0.141,0.185 -0.219,0.277 -0.111,0.131 -0.229,0.262 -0.363,0.392 -0.081,0.079 -0.17,0.157 -0.26,0.236 -0.164,0.143 -0.335,0.285 -0.526,0.426 -0.082,0.061 -0.17,0.12 -0.257,0.18 -0.226,0.156 -0.462,0.311 -0.721,0.463 -0.068,0.041 -0.141,0.08 -0.212,0.12 -0.297,0.168 -0.609,0.334 -0.945,0.497 -0.043,0.021 -0.088,0.041 -0.132,0.062 -0.375,0.177 -0.767,0.351 -1.186,0.519 -0.012,0.005 -0.024,0.009 -0.036,0.014 -2.271,0.907 -5.176,1.67 -8.561,2.169 -0.017,0.002 -0.034,0.004 -0.051,0.007 -0.658,0.097 -1.333,0.184 -2.026,0.259 -0.113,0.012 -0.232,0.02 -0.346,0.032 -0.605,0.063 -1.218,0.121 -1.847,0.167 -0.288,0.021 -0.59,0.032 -0.883,0.049 -0.474,0.028 -0.943,0.059 -1.429,0.077 C 27.637,28.984 26.827,29 26,29 25.173,29 24.363,28.984 23.568,28.956 23.082,28.938 22.613,28.907 22.139,28.879 21.846,28.862 21.544,28.851 21.256,28.83 20.626,28.785 20.014,28.726 19.409,28.663 19.295,28.651 19.176,28.643 19.063,28.631 18.37,28.555 17.695,28.468 17.037,28.372 17.02,28.37 17.003,28.368 16.986,28.365 13.601,27.865 10.696,27.102 8.425,26.196 8.413,26.192 8.401,26.187 8.389,26.182 7.97,26.014 7.577,25.84 7.203,25.663 7.16,25.642 7.114,25.622 7.071,25.601 6.735,25.439 6.424,25.273 6.126,25.104 6.056,25.064 5.982,25.025 5.914,24.984 5.655,24.832 5.419,24.677 5.193,24.521 5.107,24.461 5.018,24.401 4.936,24.341 4.745,24.2 4.574,24.058 4.41,23.915 4.321,23.836 4.232,23.758 4.15,23.679 4.016,23.549 3.898,23.418 3.787,23.287 3.709,23.195 3.634,23.102 3.568,23.01 3.48,22.887 3.405,22.764 3.338,22.641 3.284,22.542 3.236,22.443 3.195,22.344 3.146,22.223 3.107,22.102 3.079,21.982 3.041,21.823 3,21.661 3,21.5 v -8.207 c 0.12,0.109 0.257,0.216 0.387,0.324 0.072,0.06 0.139,0.12 0.214,0.18 z M 26,2 C 39.555,2 49,5.952 49,9.5 49,13.048 39.555,17 26,17 12.445,17 3,13.048 3,9.5 3,5.952 12.445,2 26,2 Z"
   inkscape:connector-curvature="0"
   style="fill:#ffffff" />

</g>
      <g
         id="g1610"
         style="fill:#ffffff">
</g>
      <g
         id="g1612"
         style="fill:#ffffff">
</g>
      <g
         id="g1614"
         style="fill:#ffffff">
</g>
      <g
         id="g1616"
         style="fill:#ffffff">
</g>
      <g
         id="g1618"
         style="fill:#ffffff">
</g>
      <g
         id="g1620"
         style="fill:#ffffff">
</g>
      <g
         id="g1622"
         style="fill:#ffffff">
</g>
      <g
         id="g1624"
         style="fill:#ffffff">
</g>
      <g
         id="g1626"
         style="fill:#ffffff">
</g>
      <g
         id="g1628"
         style="fill:#ffffff">
</g>
      <g
         id="g1630"
         style="fill:#ffffff">
</g>
      <g
         id="g1632"
         style="fill:#ffffff">
</g>
      <g
         id="g1634"
         style="fill:#ffffff">
</g>
      <g
         id="g1636"
         style="fill:#ffffff">
</g>
      <g
         id="g1638"
         style="fill:#ffffff">
</g>
    </g>
    <g
       id="g1729"
       transform="matrix(0.26458333,0,0,0.26458333,77.922105,275.90608)"
       style="fill:#ffffff">
      <g
         id="g1672"
         style="fill:#ffffff">
	<path
   id="path1668"
   d="m 51.426,44.336 c -0.429,-4.107 -3.852,-7.332 -7.953,-7.332 -2.564,0 -4.984,1.286 -6.48,3.402 -0.291,-0.051 -0.586,-0.076 -0.883,-0.076 -2.32,0 -4.381,1.577 -5.066,3.813 -1.907,1.131 -3.116,3.241 -3.116,5.502 0,3.507 2.785,6.359 6.208,6.359 H 44.91 c 0.06,0 0.118,-0.004 0.171,-0.008 0.062,0.004 0.124,0.008 0.188,0.008 h 4.31 c 3.225,0 5.849,-2.687 5.849,-5.989 -10e-4,-2.6 -1.643,-4.873 -4.002,-5.679 z m -1.848,9.668 -4.352,-0.003 -0.17,-0.006 -10.922,0.009 c -2.32,0 -4.208,-1.956 -4.208,-4.359 0,-1.665 0.949,-3.21 2.417,-3.935 l 0.435,-0.214 0.102,-0.475 c 0.331,-1.56 1.689,-2.691 3.229,-2.691 0.345,0 0.688,0.057 1.02,0.168 l 0.777,0.261 0.408,-0.711 c 1.096,-1.906 3.024,-3.044 5.158,-3.044 3.265,0 5.955,2.747 5.998,6.123 l 0.011,0.813 0.799,0.155 c 1.823,0.354 3.146,2.002 3.146,3.919 10e-4,2.2 -1.726,3.99 -3.848,3.99 z"
   inkscape:connector-curvature="0"
   style="fill:#ffffff" />

	<path
   id="path1670"
   d="M 25.577,41 C 24.75,41 23.94,40.984 23.145,40.956 22.659,40.938 22.19,40.907 21.716,40.879 21.423,40.862 21.121,40.851 20.833,40.83 20.203,40.785 19.591,40.726 18.986,40.663 18.872,40.651 18.753,40.643 18.64,40.631 17.947,40.555 17.272,40.468 16.614,40.372 16.597,40.37 16.58,40.368 16.563,40.365 13.178,39.865 10.273,39.102 8.002,38.196 7.99,38.192 7.978,38.187 7.966,38.182 7.547,38.014 7.154,37.84 6.78,37.663 6.737,37.642 6.691,37.622 6.648,37.601 6.312,37.439 6.001,37.273 5.703,37.104 5.633,37.064 5.559,37.025 5.491,36.984 5.232,36.832 4.996,36.677 4.77,36.521 4.684,36.461 4.595,36.401 4.513,36.341 4.322,36.2 4.151,36.058 3.987,35.915 3.898,35.836 3.808,35.758 3.727,35.679 3.593,35.549 3.475,35.418 3.364,35.287 3.286,35.195 3.211,35.102 3.145,35.01 3.057,34.887 2.982,34.764 2.914,34.641 2.86,34.542 2.812,34.443 2.771,34.344 2.722,34.223 2.683,34.102 2.655,33.982 2.617,33.82 2.576,33.657 2.576,33.497 V 25.29 c 0.028,0.026 0.063,0.051 0.092,0.077 0.218,0.191 0.44,0.382 0.69,0.566 C 7.126,28.786 14.659,31 25.577,31 c 10.872,0 18.386,-2.196 22.169,-5.028 0.302,-0.22 0.574,-0.447 0.83,-0.678 h 10e-4 V 34 c 0,0.553 0.447,1 1,1 0.553,0 1,-0.447 1,-1 V 22 21.5 9.5 9 C 50.577,8.818 50.515,8.657 50.431,8.51 49.273,4.22 40.654,0 25.577,0 10.5,0 1.881,4.22 0.724,8.51 0.639,8.657 0.577,8.818 0.577,9 v 0.5 12 0.5 11.5 0.5 12 c 0,0.161 0.042,0.313 0.115,0.448 1.139,4.833 10.691,7.68 19.81,8.364 0.025,0.002 0.051,0.003 0.076,0.003 0.519,0 0.957,-0.399 0.996,-0.925 0.041,-0.551 -0.371,-1.031 -0.922,-1.072 C 9.538,51.984 3.062,48.6 2.609,45.838 2.601,45.793 2.59,45.75 2.577,45.707 v -8.414 c 0.028,0.026 0.063,0.051 0.092,0.077 0.218,0.191 0.44,0.382 0.69,0.566 3.767,2.85 11.3,5.064 22.218,5.064 0.553,0 1,-0.447 1,-1 0,-0.553 -0.447,-1 -1,-1 z M 3.179,13.797 c 0.3,0.236 0.624,0.469 0.975,0.696 0.073,0.047 0.155,0.093 0.231,0.14 0.294,0.183 0.605,0.362 0.932,0.538 0.121,0.065 0.242,0.129 0.367,0.193 0.365,0.186 0.748,0.366 1.151,0.542 0.066,0.029 0.126,0.059 0.193,0.087 0.469,0.199 0.967,0.389 1.485,0.572 0.143,0.051 0.293,0.099 0.44,0.149 0.412,0.139 0.838,0.272 1.279,0.401 0.159,0.046 0.315,0.094 0.478,0.139 0.585,0.162 1.189,0.316 1.823,0.458 0.087,0.02 0.181,0.037 0.269,0.056 0.559,0.122 1.139,0.235 1.735,0.34 0.202,0.036 0.407,0.07 0.613,0.104 0.567,0.093 1.151,0.179 1.75,0.257 0.154,0.02 0.301,0.042 0.457,0.062 0.744,0.09 1.514,0.167 2.305,0.233 0.195,0.016 0.398,0.028 0.596,0.042 0.633,0.046 1.28,0.084 1.942,0.114 0.241,0.011 0.481,0.022 0.727,0.03 0.863,0.03 1.741,0.05 2.65,0.05 0.909,0 1.788,-0.021 2.65,-0.05 0.245,-0.008 0.485,-0.02 0.727,-0.03 0.662,-0.03 1.309,-0.068 1.942,-0.114 0.198,-0.015 0.4,-0.026 0.596,-0.042 0.791,-0.065 1.561,-0.143 2.305,-0.233 0.156,-0.019 0.303,-0.042 0.457,-0.062 0.599,-0.078 1.182,-0.164 1.75,-0.257 0.206,-0.034 0.411,-0.068 0.613,-0.104 0.596,-0.105 1.176,-0.218 1.735,-0.34 0.088,-0.019 0.182,-0.036 0.269,-0.056 0.634,-0.142 1.238,-0.296 1.823,-0.458 0.163,-0.045 0.319,-0.092 0.478,-0.139 0.441,-0.128 0.867,-0.262 1.279,-0.401 0.147,-0.05 0.297,-0.098 0.44,-0.149 0.518,-0.184 1.017,-0.374 1.485,-0.572 0.067,-0.028 0.127,-0.059 0.193,-0.087 0.403,-0.176 0.786,-0.356 1.151,-0.542 0.125,-0.064 0.247,-0.128 0.367,-0.193 0.327,-0.175 0.638,-0.354 0.932,-0.538 0.076,-0.047 0.158,-0.093 0.231,-0.14 0.351,-0.227 0.675,-0.459 0.975,-0.696 0.075,-0.06 0.142,-0.12 0.215,-0.18 0.13,-0.108 0.267,-0.215 0.387,-0.324 V 21.5 c 0,0.161 -0.041,0.323 -0.079,0.485 -0.028,0.121 -0.067,0.241 -0.116,0.362 -0.04,0.099 -0.089,0.198 -0.143,0.297 -0.067,0.123 -0.142,0.246 -0.231,0.369 -0.066,0.092 -0.141,0.185 -0.219,0.277 -0.111,0.131 -0.229,0.262 -0.363,0.392 -0.081,0.079 -0.17,0.157 -0.26,0.236 -0.164,0.143 -0.335,0.285 -0.526,0.426 -0.082,0.061 -0.17,0.12 -0.257,0.18 -0.226,0.156 -0.462,0.311 -0.721,0.463 -0.068,0.041 -0.141,0.08 -0.212,0.12 -0.298,0.168 -0.609,0.334 -0.945,0.497 -0.043,0.021 -0.088,0.041 -0.132,0.062 -0.375,0.177 -0.767,0.351 -1.186,0.519 -0.012,0.005 -0.024,0.009 -0.036,0.014 -2.271,0.907 -5.176,1.67 -8.561,2.169 -0.017,0.002 -0.034,0.004 -0.051,0.007 -0.658,0.097 -1.333,0.184 -2.026,0.259 -0.113,0.012 -0.232,0.02 -0.346,0.032 -0.605,0.063 -1.217,0.121 -1.847,0.167 -0.288,0.021 -0.59,0.032 -0.883,0.049 -0.474,0.028 -0.943,0.059 -1.429,0.077 C 27.214,28.984 26.404,29 25.577,29 24.75,29 23.94,28.984 23.145,28.956 22.659,28.938 22.19,28.907 21.716,28.879 21.423,28.862 21.121,28.851 20.833,28.83 20.203,28.785 19.591,28.726 18.986,28.663 18.872,28.651 18.753,28.643 18.64,28.631 17.947,28.555 17.272,28.468 16.614,28.372 16.597,28.37 16.58,28.368 16.563,28.365 13.178,27.865 10.273,27.102 8.002,26.196 7.99,26.192 7.978,26.187 7.966,26.182 7.547,26.014 7.154,25.84 6.78,25.663 6.737,25.642 6.691,25.622 6.648,25.601 6.312,25.439 6.001,25.273 5.703,25.104 5.633,25.064 5.559,25.025 5.491,24.984 5.232,24.832 4.996,24.677 4.77,24.521 4.684,24.461 4.595,24.401 4.513,24.341 4.322,24.2 4.151,24.058 3.987,23.915 3.898,23.836 3.808,23.758 3.727,23.679 3.593,23.549 3.475,23.418 3.364,23.287 3.286,23.195 3.211,23.102 3.145,23.01 3.057,22.887 2.982,22.764 2.914,22.641 2.86,22.542 2.812,22.443 2.771,22.344 2.722,22.223 2.683,22.102 2.655,21.982 2.617,21.82 2.576,21.657 2.576,21.497 V 13.29 c 0.12,0.109 0.257,0.216 0.387,0.324 0.073,0.063 0.14,0.123 0.216,0.183 z M 25.577,2 c 13.555,0 23,3.952 23,7.5 0,3.548 -9.445,7.5 -23,7.5 -13.555,0 -23,-3.952 -23,-7.5 0,-3.548 9.445,-7.5 23,-7.5 z"
   inkscape:connector-curvature="0"
   style="fill:#ffffff" />

</g>
      <g
         id="g1674"
         style="fill:#ffffff">
</g>
      <g
         id="g1676"
         style="fill:#ffffff">
</g>
      <g
         id="g1678"
         style="fill:#ffffff">
</g>
      <g
         id="g1680"
         style="fill:#ffffff">
</g>
      <g
         id="g1682"
         style="fill:#ffffff">
</g>
      <g
         id="g1684"
         style="fill:#ffffff">
</g>
      <g
         id="g1686"
         style="fill:#ffffff">
</g>
      <g
         id="g1688"
         style="fill:#ffffff">
</g>
      <g
         id="g1690"
         style="fill:#ffffff">
</g>
      <g
         id="g1692"
         style="fill:#ffffff">
</g>
      <g
         id="g1694"
         style="fill:#ffffff">
</g>
      <g
         id="g1696"
         style="fill:#ffffff">
</g>
      <g
         id="g1698"
         style="fill:#ffffff">
</g>
      <g
         id="g1700"
         style="fill:#ffffff">
</g>
      <g
         id="g1702"
         style="fill:#ffffff">
</g>
    </g>
    <g
       id="g1927"
       transform="matrix(0.05459656,0,0,0.05459656,-3.8884238,253.45482)"
       style="fill:#ffffff">
      <g
         id="g1735"
         style="fill:#ffffff">
	<g
   id="g1733"
   style="fill:#ffffff">
		<path
   id="path1731"
   d="M 341.936,0 H 138.064 C 114.844,0.026 96.026,18.844 96,42.064 v 395.872 c 0.026,23.22 18.844,42.038 42.064,42.064 h 203.872 c 23.22,-0.026 42.038,-18.844 42.064,-42.064 V 42.064 C 383.974,18.844 365.156,0.026 341.936,0 Z M 368,437.936 C 367.982,452.323 356.323,463.982 341.936,464 H 138.064 C 123.677,463.982 112.018,452.323 112,437.936 V 416 H 368 Z M 368,400 H 112 V 88 H 368 Z M 368,72 H 112 V 42.064 C 112.018,27.677 123.677,16.018 138.064,16 h 203.872 c 14.387,0.018 26.046,11.677 26.064,26.064 z"
   inkscape:connector-curvature="0"
   style="fill:#ffffff" />

	</g>

</g>
      <g
         id="g1741"
         style="fill:#ffffff">
	<g
   id="g1739"
   style="fill:#ffffff">
		<rect
   id="rect1737"
   height="16"
   width="80"
   y="40"
   x="184"
   style="fill:#ffffff" />

	</g>

</g>
      <g
         id="g1747"
         style="fill:#ffffff">
	<g
   id="g1745"
   style="fill:#ffffff">
		<rect
   id="rect1743"
   height="16"
   width="32"
   y="432"
   x="224"
   style="fill:#ffffff" />

	</g>

</g>
      <g
         id="g1753"
         style="fill:#ffffff">
	<g
   id="g1751"
   style="fill:#ffffff">
		<path
   id="path1749"
   d="m 128,120 v 96 h 112 v -96 z m 96,80 h -80 v -64 h 80 z"
   inkscape:connector-curvature="0"
   style="fill:#ffffff" />

	</g>

</g>
      <g
         id="g1759"
         style="fill:#ffffff">
	<g
   id="g1757"
   style="fill:#ffffff">
		<rect
   id="rect1755"
   height="16"
   width="96"
   y="120"
   x="256"
   style="fill:#ffffff" />

	</g>

</g>
      <g
         id="g1765"
         style="fill:#ffffff">
	<g
   id="g1763"
   style="fill:#ffffff">
		<rect
   id="rect1761"
   height="16"
   width="32"
   y="152"
   x="256"
   style="fill:#ffffff" />

	</g>

</g>
      <g
         id="g1771"
         style="fill:#ffffff">
	<g
   id="g1769"
   style="fill:#ffffff">
		<rect
   id="rect1767"
   height="16"
   width="48"
   y="152"
   x="304"
   style="fill:#ffffff" />

	</g>

</g>
      <g
         id="g1777"
         style="fill:#ffffff">
	<g
   id="g1775"
   style="fill:#ffffff">
		<rect
   id="rect1773"
   height="16"
   width="96"
   y="184"
   x="256"
   style="fill:#ffffff" />

	</g>

</g>
      <g
         id="g1783"
         style="fill:#ffffff">
	<g
   id="g1781"
   style="fill:#ffffff">
		<path
   id="path1779"
   d="m 128,232 v 96 h 112 v -96 z m 96,80 h -80 v -64 h 80 z"
   inkscape:connector-curvature="0"
   style="fill:#ffffff" />

	</g>

</g>
      <g
         id="g1789"
         style="fill:#ffffff">
	<g
   id="g1787"
   style="fill:#ffffff">
		<rect
   id="rect1785"
   height="16"
   width="96"
   y="232"
   x="256"
   style="fill:#ffffff" />

	</g>

</g>
      <g
         id="g1795"
         style="fill:#ffffff">
	<g
   id="g1793"
   style="fill:#ffffff">
		<rect
   id="rect1791"
   height="16"
   width="32"
   y="264"
   x="256"
   style="fill:#ffffff" />

	</g>

</g>
      <g
         id="g1801"
         style="fill:#ffffff">
	<g
   id="g1799"
   style="fill:#ffffff">
		<rect
   id="rect1797"
   height="16"
   width="48"
   y="264"
   x="304"
   style="fill:#ffffff" />

	</g>

</g>
      <g
         id="g1807"
         style="fill:#ffffff">
	<g
   id="g1805"
   style="fill:#ffffff">
		<rect
   id="rect1803"
   height="16"
   width="96"
   y="296"
   x="256"
   style="fill:#ffffff" />

	</g>

</g>
      <g
         id="g1813"
         style="fill:#ffffff">
	<g
   id="g1811"
   style="fill:#ffffff">
		<rect
   id="rect1809"
   height="16"
   width="96"
   y="368"
   x="176"
   style="fill:#ffffff" />

	</g>

</g>
      <g
         id="g1819"
         style="fill:#ffffff">
	<g
   id="g1817"
   style="fill:#ffffff">
		<path
   id="path1815"
   d="m 288,336 v 48 h 64 v -48 z m 48,32 h -32 v -16 h 32 z"
   inkscape:connector-curvature="0"
   style="fill:#ffffff" />

	</g>

</g>
      <g
         id="g1825"
         style="fill:#ffffff">
	<g
   id="g1823"
   style="fill:#ffffff">
		<rect
   id="rect1821"
   height="16"
   width="16"
   y="40"
   x="280"
   style="fill:#ffffff" />

	</g>

</g>
      <g
         id="g1827"
         style="fill:#ffffff">
</g>
      <g
         id="g1829"
         style="fill:#ffffff">
</g>
      <g
         id="g1831"
         style="fill:#ffffff">
</g>
      <g
         id="g1833"
         style="fill:#ffffff">
</g>
      <g
         id="g1835"
         style="fill:#ffffff">
</g>
      <g
         id="g1837"
         style="fill:#ffffff">
</g>
      <g
         id="g1839"
         style="fill:#ffffff">
</g>
      <g
         id="g1841"
         style="fill:#ffffff">
</g>
      <g
         id="g1843"
         style="fill:#ffffff">
</g>
      <g
         id="g1845"
         style="fill:#ffffff">
</g>
      <g
         id="g1847"
         style="fill:#ffffff">
</g>
      <g
         id="g1849"
         style="fill:#ffffff">
</g>
      <g
         id="g1851"
         style="fill:#ffffff">
</g>
      <g
         id="g1853"
         style="fill:#ffffff">
</g>
      <g
         id="g1855"
         style="fill:#ffffff">
</g>
    </g>
    <path
       style="fill:#ffffff;stroke:#ffffff;stroke-width:0.6;stroke-linecap:butt;stroke-linejoin:miter;stroke-miterlimit:4;stroke-dasharray:none;stroke-opacity:0.98994976;marker-start:url(#Arrow2Mstart);marker-end:url(#Arrow2Mend);fill-opacity:1"
       d="m 19.243908,267.31178 h 19.44019"
       id="path1937"
       inkscape:connector-curvature="0" />
    <path
       style="fill:#ffffff;stroke:#ffffff;stroke-width:0.60000002;stroke-linecap:butt;stroke-linejoin:miter;stroke-miterlimit:4;stroke-dasharray:none;stroke-opacity:1;marker-start:url(#Arrow2Mstart-1);marker-end:url(#Arrow2Mend-1)"
       d="M 61.058665,260.52011 76.336524,249.78425"
       id="path1937-1"
       inkscape:connector-curvature="0"
       sodipodi:nodetypes="cc" />
    <path
       style="fill:#ffffff;stroke:#ffffff;stroke-width:0.60000002;stroke-linecap:butt;stroke-linejoin:miter;stroke-miterlimit:4;stroke-dasharray:none;stroke-opacity:1;marker-start:url(#Arrow2Mstart-1-4);marker-end:url(#Arrow2Mend-1-8)"
       d="m 60.965773,272.9569 15.421935,9.36423"
       id="path1937-1-7"
       inkscape:connector-curvature="0"
       sodipodi:nodetypes="cc" />
    <text
       xml:space="preserve"
       style="font-style:normal;font-weight:normal;font-size:5.63329172px;line-height:1.25;font-family:sans-serif;letter-spacing:0px;word-spacing:0px;fill:#ffffff;fill-opacity:1;stroke:none;stroke-width:0.14083229;"
       x="74.664268"
       y="272.98734"
       id="text8178"
       transform="scale(1.0413273,0.96031287)"><tspan
         sodipodi:role="line"
         id="tspan8176"
         x="74.664268"
         y="272.98734"
         style="fill:#ffffff;stroke-width:0.14083229;">Local</tspan></text>
    <text
       xml:space="preserve"
       style="font-style:normal;font-weight:normal;font-size:5.63329172px;line-height:1.25;font-family:sans-serif;letter-spacing:0px;word-spacing:0px;fill:#ffffff;fill-opacity:1;stroke:none;stroke-width:0.1408323;"
       x="76.331078"
       y="308.32437"
       id="text8178-3"
       transform="scale(1.0413273,0.96031287)"><tspan
         sodipodi:role="line"
         id="tspan8176-8"
         x="76.331078"
         y="308.32437"
         style="fill:#ffffff;stroke-width:0.1408323;">Web</tspan></text>
  </g>
</svg>
